<?xml version="1.0" standalone="no"?>
<!DOCTYPE svg PUBLIC "-//W3C//DTD SVG 20010904//EN"
 "http://www.w3.org/TR/2001/REC-SVG-20010904/DTD/svg10.dtd">
<svg version="1.0" xmlns="http://www.w3.org/2000/svg"
 width="1326.000000pt" height="1326.000000pt" viewBox="0 0 1326.000000 1326.000000"
 preserveAspectRatio="xMidYMid meet">
<metadata>
Created by potrace 1.11, written by Peter Selinger 2001-2013
</metadata>
<g transform="translate(0.000000,1326.000000) scale(0.100000,-0.100000)"
fill="#000000" stroke="none">
<path d="M4800 13243 c0 -15 -2 -16 -10 -3 -7 11 -10 2 -10 -32 0 -27 -4 -48
-8 -48 -5 0 -9 -21 -11 -47 -1 -26 -6 -52 -11 -58 -12 -14 -10 -325 1 -325 5
0 9 -29 9 -64 0 -36 4 -67 8 -70 5 -3 9 -22 10 -42 1 -20 7 -43 14 -52 11 -13
11 -14 -1 -7 -11 6 -12 5 -5 -6 4 -8 10 -20 11 -26 2 -7 4 -19 6 -25 1 -7 7
-19 11 -27 7 -10 5 -12 -5 -6 -11 6 -12 5 -1 -6 6 -7 12 -26 12 -41 0 -15 5
-28 10 -28 6 0 10 -14 10 -31 0 -17 4 -28 10 -24 6 3 10 -4 10 -16 0 -29 22
-89 32 -89 4 0 8 -16 8 -36 0 -28 3 -35 15 -30 9 3 15 1 14 -7 -4 -33 2 -68
11 -62 6 3 10 -3 10 -14 0 -12 6 -21 13 -21 8 0 7 -4 -3 -10 -10 -6 -11 -10
-2 -10 6 0 12 -9 12 -19 0 -11 4 -21 10 -23 5 -1 11 -15 12 -30 1 -15 6 -24
10 -22 4 3 8 -6 8 -20 0 -14 5 -26 10 -26 6 0 10 -16 10 -35 0 -19 5 -35 10
-35 6 0 10 -9 10 -20 0 -11 5 -20 10 -20 6 0 10 -11 10 -25 0 -14 5 -25 10
-25 6 0 10 -11 10 -25 0 -14 5 -25 10 -25 6 0 10 -9 10 -20 0 -11 6 -20 13
-20 9 0 8 -3 -2 -9 -9 -6 -10 -10 -2 -12 7 -3 13 -14 14 -27 0 -12 5 -22 9
-22 4 0 8 -12 8 -26 0 -14 4 -23 8 -20 4 2 8 -3 9 -12 3 -44 8 -60 15 -56 4 3
8 -6 8 -20 0 -15 6 -26 13 -26 7 0 14 -14 15 -32 2 -18 7 -37 12 -42 6 -6 10
-27 10 -49 0 -23 4 -36 10 -32 8 5 16 -39 11 -67 0 -5 3 -8 7 -8 4 0 9 -17 10
-37 2 -21 8 -40 13 -44 6 -3 10 -9 10 -13 -5 -32 1 -116 7 -112 4 2 9 -4 9
-15 1 -13 -2 -17 -10 -12 -7 4 -7 0 1 -10 19 -23 19 -376 0 -388 -10 -7 -10
-9 0 -9 6 0 12 -7 12 -15 0 -8 -6 -15 -12 -15 -10 0 -10 -2 0 -9 17 -11 17
-21 0 -32 -7 -5 -8 -9 -3 -9 6 0 11 -9 12 -20 1 -13 -2 -18 -9 -14 -7 5 -8 2
-3 -7 9 -14 11 -25 16 -92 2 -21 7 -41 11 -43 4 -3 8 -27 8 -53 0 -26 4 -51
10 -57 5 -5 10 -24 12 -42 1 -19 6 -36 10 -38 4 -3 8 -17 8 -32 0 -15 7 -35
14 -45 8 -10 12 -28 9 -40 -4 -18 -3 -19 6 -7 8 12 11 8 12 -20 1 -19 1 -39 0
-43 -1 -5 3 -6 9 -2 10 6 15 -14 11 -44 -2 -7 2 -10 8 -6 7 4 11 -5 11 -24 0
-24 3 -29 17 -24 9 4 14 2 10 -4 -3 -5 1 -22 9 -37 7 -16 14 -37 14 -48 0 -10
5 -16 10 -13 6 3 10 -5 10 -19 0 -14 5 -28 10 -31 6 -3 10 -15 10 -26 0 -11 5
-17 10 -14 6 4 10 -8 10 -30 0 -22 4 -34 10 -30 6 4 10 -7 10 -25 0 -18 4 -29
10 -25 6 4 10 -5 10 -19 0 -14 5 -26 10 -26 6 0 10 -9 10 -19 0 -11 4 -21 10
-23 5 -1 11 -15 12 -30 1 -16 6 -28 10 -28 4 0 8 -9 8 -21 0 -11 5 -17 10 -14
6 4 10 -8 10 -30 0 -26 3 -34 13 -29 7 5 6 0 -3 -11 -9 -11 -10 -16 -2 -11 7
4 12 1 12 -9 0 -10 -5 -13 -12 -9 -10 6 -10 5 -1 -7 8 -10 9 -19 3 -25 -5 -5
-10 -30 -11 -56 -2 -27 -6 -48 -11 -48 -4 0 -8 -25 -8 -55 0 -37 -4 -55 -12
-55 -9 0 -8 -4 2 -10 10 -6 11 -10 3 -10 -8 0 -13 -15 -13 -40 0 -22 -4 -40
-10 -40 -5 0 -10 -13 -10 -30 0 -16 -4 -30 -10 -30 -5 0 -10 -13 -10 -30 0
-16 -4 -30 -10 -30 -5 0 -10 -9 -10 -20 0 -11 -4 -20 -10 -20 -5 0 -10 -11
-10 -25 0 -14 -4 -25 -10 -25 -5 0 -10 -7 -10 -16 0 -8 -4 -13 -8 -10 -5 3 -9
-1 -10 -9 -1 -8 -3 -22 -4 -30 -1 -8 -4 -12 -8 -10 -4 2 -13 -7 -20 -20 -7
-13 -17 -22 -21 -19 -4 2 -10 0 -14 -6 -4 -6 -11 -8 -16 -4 -5 3 -8 2 -7 -3 2
-4 -1 -9 -5 -10 -5 -1 -17 -11 -26 -22 -10 -12 -26 -21 -35 -21 -9 0 -16 -4
-16 -10 0 -5 -12 -10 -26 -10 -14 0 -23 -4 -19 -10 3 -5 -3 -10 -15 -10 -11 0
-28 -4 -38 -9 -9 -5 -25 -12 -35 -15 -10 -3 -16 -9 -13 -14 2 -4 -10 -9 -27
-10 -17 -2 -34 -6 -37 -10 -3 -4 -16 -9 -30 -11 -14 -1 -27 -6 -30 -10 -3 -3
-14 -8 -25 -9 -11 -2 -24 -8 -29 -13 -6 -5 -18 -9 -28 -9 -10 0 -18 -4 -18
-10 0 -5 -7 -10 -15 -10 -9 0 -26 -9 -37 -20 -15 -14 -24 -16 -29 -9 -4 8 -8
7 -13 -2 -5 -11 -7 -11 -12 -1 -3 6 -15 12 -25 12 -11 0 -17 5 -14 10 3 6 -1
10 -9 10 -9 0 -16 3 -16 8 0 4 -14 13 -30 20 -17 8 -28 18 -24 23 3 5 -2 9
-10 9 -9 0 -16 5 -16 10 0 6 -6 10 -14 10 -8 0 -18 5 -22 12 -4 7 -3 8 4 4 7
-4 12 -2 12 3 0 6 -7 11 -16 11 -9 0 -12 5 -8 12 4 6 3 8 -3 5 -12 -8 -56 27
-46 37 3 3 -3 6 -15 6 -11 0 -27 9 -35 20 -8 11 -17 17 -20 13 -4 -3 -7 -1 -7
5 0 18 -89 102 -108 102 -12 0 -13 3 -5 8 8 5 2 12 -19 21 -22 10 -27 16 -17
22 10 6 11 9 2 9 -7 0 -13 7 -13 16 0 8 -4 12 -10 9 -5 -3 -10 1 -10 10 0 9
-4 13 -10 10 -5 -3 -10 -1 -10 5 0 12 -24 40 -35 40 -10 0 -95 89 -95 100 0 6
-3 9 -7 7 -5 -2 -23 11 -41 29 -18 19 -30 34 -27 34 3 0 -3 8 -12 18 -10 11
-22 16 -28 13 -5 -2 -4 3 4 13 12 15 12 17 0 14 -8 -2 -13 3 -11 12 2 8 0 12
-4 8 -4 -5 -14 1 -21 12 -8 11 -19 18 -24 14 -5 -3 -8 0 -7 6 2 7 -10 20 -27
30 -16 10 -29 23 -28 29 2 6 -3 10 -10 8 -6 -1 -11 4 -10 10 2 7 -3 12 -10 10
-6 -1 -11 4 -9 11 1 8 -1 12 -5 9 -11 -5 -43 30 -35 38 4 4 2 6 -3 5 -22 -5
-35 1 -35 16 0 8 -4 12 -10 9 -5 -3 -10 2 -10 11 0 10 -3 15 -6 11 -6 -6 -34
16 -34 28 0 3 -11 17 -25 31 -14 14 -25 20 -25 13 0 -7 -8 -2 -19 9 -10 12
-23 22 -30 22 -6 0 -11 5 -11 10 0 6 -7 10 -16 10 -8 0 -13 3 -11 8 3 4 -1 13
-9 20 -8 7 -14 8 -14 2 0 -5 -14 3 -31 20 -18 16 -38 30 -45 30 -8 0 -14 5
-14 10 0 6 -9 10 -21 10 -11 0 -17 5 -14 10 4 6 -5 10 -19 10 -14 0 -26 5 -26
10 0 6 -11 10 -25 10 -14 0 -25 5 -25 10 0 6 -9 10 -20 10 -11 0 -20 5 -20 10
0 6 -9 10 -19 10 -10 0 -21 7 -25 15 -3 8 -16 15 -29 15 -13 0 -27 4 -33 9 -5
5 -18 11 -29 13 -11 1 -23 7 -26 11 -4 5 -22 9 -42 10 -20 0 -34 5 -31 9 3 4
-5 9 -18 9 -36 2 -58 8 -98 28 -8 4 -33 8 -55 10 -22 1 -42 6 -45 11 -4 6 -39
11 -78 12 -46 1 -67 5 -60 11 13 9 -1 6 -39 -10 -11 -4 -14 -3 -8 6 6 10 3 11
-13 2 -11 -6 -33 -11 -49 -11 -22 0 -25 -2 -13 -10 13 -8 12 -10 -4 -10 -10 0
-29 -12 -42 -27 -19 -23 -24 -39 -24 -85 0 -40 4 -58 13 -58 8 0 7 -4 -3 -10
-10 -6 -11 -10 -2 -10 6 0 12 -9 12 -20 0 -11 5 -20 10 -20 6 0 10 -13 10 -30
0 -16 5 -30 10 -30 6 0 10 -9 10 -20 0 -11 5 -20 10 -20 6 0 10 -9 10 -20 0
-11 5 -20 10 -20 6 0 10 -11 10 -25 0 -14 5 -25 10 -25 6 0 10 -9 10 -21 0
-11 5 -17 10 -14 6 4 10 -5 10 -20 0 -15 4 -24 10 -20 6 3 10 -1 10 -9 0 -9 6
-16 13 -16 9 0 9 -2 0 -8 -9 -6 -7 -12 7 -22 11 -8 20 -22 20 -32 0 -10 5 -18
10 -18 6 0 10 -9 10 -20 0 -11 5 -20 10 -20 6 0 10 -9 10 -21 0 -11 5 -17 10
-14 6 3 10 -5 10 -19 0 -19 4 -24 15 -19 9 3 15 2 13 -3 -3 -12 25 -74 34 -74
5 0 8 -7 8 -15 0 -9 9 -25 20 -37 18 -20 25 -39 21 -60 0 -5 4 -8 9 -8 6 0 10
-7 10 -16 0 -8 7 -22 15 -30 8 -8 11 -22 8 -31 -4 -11 -3 -14 5 -9 7 4 12 1
12 -9 0 -8 4 -23 9 -33 25 -47 39 -87 34 -96 -3 -5 -1 -6 5 -2 8 5 12 -2 12
-18 0 -14 4 -26 10 -26 5 0 9 -3 9 -7 -3 -20 2 -44 9 -40 4 3 8 -13 10 -36 1
-22 7 -46 12 -52 5 -6 11 -30 12 -53 3 -38 4 -40 16 -25 10 14 13 15 12 3 -6
-44 1 -131 10 -125 6 3 10 1 10 -4 0 -6 -4 -11 -8 -11 -4 0 -8 -9 -9 -20 -1
-13 2 -18 10 -13 7 4 6 0 -2 -10 -10 -13 -10 -17 -1 -17 10 0 10 -3 1 -14 -9
-11 -9 -15 1 -19 10 -4 10 -6 1 -6 -9 -1 -13 -17 -13 -46 0 -33 -4 -45 -15
-45 -9 0 -15 -9 -15 -24 0 -14 -4 -27 -9 -31 -11 -6 -10 -45 1 -45 4 0 8 -11
8 -25 0 -16 6 -25 15 -25 11 0 15 -11 15 -42 0 -31 3 -39 10 -28 7 12 9 10 7
-7 0 -12 -5 -19 -9 -17 -7 4 -14 -97 -9 -131 1 -5 -5 -2 -13 8 -13 17 -14 17
-14 -5 1 -43 -6 -88 -14 -88 -4 0 -8 -17 -8 -37 0 -28 -3 -34 -10 -23 -8 12
-10 9 -10 -12 0 -15 -4 -30 -10 -33 -5 -3 -10 -17 -10 -31 0 -13 -5 -24 -12
-24 -6 0 -8 -3 -5 -6 4 -4 0 -19 -7 -33 -20 -37 -41 -95 -38 -103 1 -5 -3 -8
-8 -8 -6 0 -10 -9 -10 -19 0 -11 -4 -21 -10 -23 -5 -1 -11 -15 -12 -30 -1 -15
-6 -24 -10 -22 -4 3 -8 -2 -8 -10 0 -9 -5 -16 -11 -16 -5 0 -8 -4 -4 -9 3 -5
-1 -15 -8 -23 -15 -15 -17 -20 -17 -50 0 -19 -2 -20 -10 -8 -7 12 -10 8 -10
-15 0 -16 -7 -39 -15 -49 -8 -10 -11 -24 -8 -30 4 -6 -2 -4 -12 4 -10 8 -16
10 -12 3 4 -6 0 -18 -8 -26 -11 -12 -12 -17 -2 -20 9 -4 9 -6 0 -6 -7 -1 -13
-8 -13 -17 0 -8 -5 -12 -10 -9 -6 4 -10 3 -9 -2 3 -20 -2 -44 -9 -39 -4 2 -9
-7 -10 -22 -1 -15 -7 -28 -12 -30 -6 -2 -10 -15 -10 -28 0 -13 -4 -24 -10 -24
-5 0 -10 -9 -10 -20 0 -11 -4 -20 -10 -20 -5 0 -10 -15 -10 -32 0 -25 -3 -29
-10 -18 -7 11 -10 7 -10 -17 0 -18 -4 -33 -10 -33 -5 0 -10 -14 -10 -31 0 -17
-4 -28 -10 -24 -6 4 -10 -7 -10 -25 0 -17 -4 -29 -9 -26 -5 3 -9 -37 -10 -89
-1 -61 2 -95 9 -95 5 0 10 -7 10 -16 0 -21 20 -38 50 -43 14 -1 28 -8 31 -13
7 -10 20 -9 64 7 16 5 17 5 5 -4 -12 -9 -11 -11 8 -11 16 0 21 4 16 13 -5 7 0
6 11 -3 11 -9 16 -10 11 -2 -7 12 15 17 58 12 11 -1 15 3 12 9 -5 7 4 11 23
11 16 0 32 4 35 8 3 5 29 9 58 11 29 1 55 6 56 12 2 5 8 9 13 9 6 0 8 -4 5 -8
-3 -5 1 -9 9 -9 8 0 12 3 10 7 -2 4 23 8 57 9 34 1 65 6 68 11 3 5 27 10 53
12 26 2 47 6 47 11 0 4 14 7 30 7 17 0 30 5 30 10 0 6 17 10 38 10 20 0 45 7
55 15 11 7 28 12 38 10 11 -2 17 0 14 6 -4 5 11 9 32 10 30 0 34 2 18 9 -17 7
-15 9 12 9 17 1 35 6 38 11 3 6 15 10 26 10 10 0 19 5 19 11 0 5 -5 7 -12 3
-7 -4 -8 -3 -4 4 4 7 20 12 37 12 16 0 29 5 29 10 0 6 9 10 20 10 11 0 20 5
20 10 0 6 9 10 21 10 11 0 17 5 14 10 -4 6 5 10 19 10 14 0 26 5 26 10 0 6 7
10 16 10 8 0 12 5 9 10 -3 6 3 10 14 10 12 0 21 5 21 10 0 6 9 10 20 10 11 0
20 5 20 10 0 6 9 10 21 10 11 0 17 5 14 10 -3 6 3 10 14 10 12 0 21 5 21 10 0
6 7 10 16 10 8 0 12 5 9 10 -3 6 2 10 12 10 10 0 25 9 33 20 8 11 20 20 27 20
18 0 53 32 47 42 -5 7 10 12 29 9 4 0 6 2 5 6 -2 5 1 9 5 10 5 1 17 11 26 22
10 12 25 21 32 21 19 1 50 25 42 33 -3 4 -1 7 6 7 6 0 23 11 37 25 14 14 30
22 36 19 6 -4 8 -3 5 3 -4 5 5 16 18 23 14 7 25 17 25 22 0 4 10 8 23 8 18 0
19 2 7 10 -13 8 -12 10 3 10 10 0 20 7 23 15 4 8 10 12 15 9 5 -3 9 0 9 6 0
16 26 40 43 40 19 0 39 24 29 35 -4 5 -2 5 5 2 6 -4 18 0 26 8 9 8 21 15 27
15 6 0 8 5 5 10 -3 6 3 10 15 10 12 0 18 5 15 10 -3 6 1 10 9 10 9 0 16 5 16
10 0 6 7 10 16 10 8 0 12 5 9 10 -4 6 7 10 24 10 17 0 31 5 31 10 0 6 29 10
68 10 46 0 62 3 52 10 -12 7 -10 9 7 7 12 0 20 -4 18 -7 -2 -3 5 -6 15 -6 10
0 16 4 14 8 -3 4 4 8 15 8 11 0 23 -4 26 -10 3 -5 26 -10 51 -10 28 0 44 -4
44 -12 0 -9 4 -8 10 2 6 10 10 11 10 3 0 -8 14 -13 36 -13 21 0 33 -4 29 -10
-4 -6 6 -10 23 -10 15 0 38 -9 50 -20 12 -11 28 -20 37 -20 9 0 13 -4 10 -10
-3 -6 3 -10 14 -10 12 0 21 -4 21 -10 0 -5 7 -10 16 -10 8 0 12 -4 9 -10 -3
-5 1 -10 9 -10 9 0 16 -5 16 -11 0 -6 7 -8 15 -5 12 4 15 0 12 -19 -1 -13 -7
-28 -12 -32 -4 -4 -5 -3 -1 4 3 6 3 14 -2 17 -7 4 -11 -10 -14 -51 -1 -7 -5
-13 -10 -13 -4 0 -8 -16 -8 -36 0 -21 -4 -33 -10 -29 -6 4 -10 -10 -10 -34 0
-23 -4 -41 -10 -41 -5 0 -10 -14 -10 -31 0 -17 -4 -28 -10 -24 -14 9 -12 -8 3
-24 10 -11 10 -13 0 -7 -9 5 -13 -3 -13 -28 0 -20 -4 -36 -10 -36 -5 0 -10
-18 -10 -40 0 -22 -4 -40 -10 -40 -5 0 -10 -5 -10 -11 0 -5 6 -7 13 -3 10 6
10 4 0 -7 -7 -7 -13 -30 -13 -50 0 -21 -4 -40 -8 -43 -5 -3 -10 -29 -11 -57
-1 -29 -7 -59 -14 -68 -10 -12 -9 -13 3 -6 12 7 13 6 3 -7 -7 -8 -13 -44 -14
-79 -1 -35 -4 -68 -8 -74 -6 -10 -8 -36 -12 -143 -1 -30 -5 -49 -8 -43 -6 9
-13 -119 -14 -266 0 -29 -3 -50 -7 -48 -4 2 -7 -2 -7 -10 0 -8 4 -12 9 -9 13
8 10 -10 -4 -25 -10 -11 -10 -13 0 -7 14 8 17 -10 2 -19 -6 -3 -10 -14 -9 -23
0 -14 2 -13 9 3 8 18 9 17 9 -8 1 -16 -3 -26 -7 -23 -5 3 -9 -1 -9 -9 0 -8 4
-12 9 -9 4 3 8 0 8 -5 0 -6 -4 -11 -9 -11 -5 0 -9 -18 -8 -40 1 -22 5 -40 9
-40 5 0 8 -5 8 -11 0 -5 -4 -8 -9 -5 -5 3 -8 -10 -8 -29 1 -19 6 -35 12 -35 5
0 3 -5 -5 -10 -13 -8 -13 -13 -2 -31 8 -12 9 -18 3 -14 -8 4 -11 -4 -9 -24 1
-17 6 -31 10 -31 4 0 8 -5 8 -11 0 -5 -4 -7 -10 -4 -5 3 -10 1 -10 -4 0 -6 5
-11 10 -11 6 0 10 -5 10 -11 0 -5 -4 -8 -8 -5 -4 2 -8 -4 -8 -14 0 -10 4 -16
8 -14 13 8 9 -11 -4 -25 -10 -11 -10 -13 0 -7 15 9 16 -6 0 -22 -8 -8 -8 -15
-1 -24 9 -11 15 -121 16 -280 0 -26 3 -46 6 -43 4 2 8 -5 8 -16 1 -11 -2 -17
-6 -15 -4 3 -8 -1 -8 -9 0 -8 3 -12 7 -10 3 2 8 -38 9 -88 5 -123 5 -130 12
-142 4 -5 7 -50 8 -100 1 -57 6 -92 14 -97 7 -4 7 -8 2 -8 -6 0 -11 -9 -12
-20 -1 -11 2 -18 8 -15 12 8 11 -2 -2 -27 -8 -15 -8 -19 0 -14 15 10 14 -7 -1
-23 -7 -8 -8 -11 -2 -8 8 5 11 -49 11 -193 1 -146 -3 -198 -11 -193 -6 4 -5 0
2 -9 14 -17 13 -39 -3 -50 -6 -5 -5 -8 3 -8 6 0 12 -5 12 -11 0 -5 -4 -8 -8
-5 -5 3 -9 -1 -9 -9 0 -8 3 -12 7 -10 4 2 7 -2 7 -10 0 -8 -4 -12 -9 -9 -13 8
-10 -10 5 -25 10 -11 10 -13 0 -7 -10 6 -13 -16 -13 -93 0 -56 -4 -103 -10
-106 -5 -3 -10 -35 -10 -71 0 -35 -4 -64 -8 -64 -7 0 -12 -36 -16 -112 0 -9
-4 -14 -8 -12 -4 3 -8 -16 -8 -43 0 -36 -3 -44 -11 -33 -8 12 -10 12 -8 -5 4
-58 -1 -85 -18 -86 -11 0 -13 -3 -5 -6 6 -2 12 -9 12 -14 0 -6 -4 -7 -10 -4
-8 5 -16 -49 -11 -78 1 -5 -3 -6 -9 -2 -6 4 -10 -6 -10 -25 0 -17 -4 -29 -8
-26 -4 2 -9 -10 -10 -27 -2 -17 -7 -36 -12 -41 -6 -6 -10 -18 -10 -28 0 -10
-6 -18 -12 -18 -9 0 -8 -4 2 -10 10 -6 11 -10 3 -10 -7 0 -13 -9 -13 -20 0
-11 -4 -28 -9 -38 -23 -45 -32 -69 -34 -89 0 -12 -5 -19 -9 -17 -4 3 -8 -4 -8
-16 0 -12 -4 -19 -8 -16 -4 2 -9 -7 -10 -22 -1 -15 -7 -28 -12 -30 -6 -2 -10
-12 -10 -23 0 -10 -4 -19 -10 -19 -5 0 -10 -11 -10 -25 0 -14 -4 -25 -10 -25
-5 0 -10 -7 -10 -16 0 -8 -5 -12 -10 -9 -6 4 -9 3 -8 -2 5 -17 -27 -71 -51
-87 -14 -8 -20 -16 -12 -16 9 0 7 -6 -7 -19 -12 -10 -22 -24 -22 -30 0 -7 -9
-21 -20 -33 -11 -12 -26 -34 -32 -50 -7 -15 -16 -28 -20 -28 -5 0 -8 -7 -8
-16 0 -8 -4 -12 -10 -9 -5 3 -10 -1 -10 -10 0 -9 -18 -34 -40 -55 -23 -22 -42
-43 -43 -47 -1 -4 -5 -7 -10 -5 -4 1 -6 -4 -5 -10 2 -7 -3 -12 -10 -10 -6 1
-11 -1 -11 -5 3 -19 -2 -33 -12 -33 -5 0 -7 5 -3 12 4 7 3 8 -4 4 -7 -4 -12
-14 -12 -22 0 -8 -4 -12 -10 -9 -5 3 -10 -1 -10 -9 0 -10 -9 -16 -22 -16 -19
0 -20 -2 -8 -10 13 -8 13 -10 -2 -10 -9 0 -20 -5 -24 -12 -5 -7 -3 -8 7 -3 8
5 5 -1 -5 -13 -11 -12 -23 -22 -29 -22 -5 0 -22 -13 -37 -30 -15 -16 -36 -30
-47 -30 -15 0 -16 -2 -3 -10 12 -8 10 -10 -10 -10 -20 0 -22 -2 -10 -10 12 -8
11 -10 -5 -10 -11 0 -27 -9 -34 -19 -8 -11 -19 -17 -25 -15 -6 2 -23 -7 -38
-21 -15 -14 -32 -25 -38 -25 -6 0 -18 -7 -27 -15 -8 -8 -19 -12 -25 -9 -7 4
-8 2 -4 -4 4 -7 1 -12 -8 -12 -9 0 -16 -4 -16 -10 0 -5 -14 -10 -31 -10 -28 0
-30 -2 -18 -17 8 -9 9 -14 2 -10 -6 4 -18 0 -26 -8 -9 -8 -23 -15 -31 -15 -9
0 -16 -4 -16 -8 0 -4 -9 -8 -21 -9 -11 -1 -29 -11 -39 -22 -9 -12 -22 -21 -29
-21 -6 0 -11 -4 -11 -10 0 -5 -7 -10 -16 -10 -8 0 -12 -4 -9 -10 3 -5 1 -10
-5 -10 -14 0 -140 -127 -133 -134 4 -3 -2 -6 -13 -6 -16 0 -17 -2 -4 -10 13
-9 7 -14 -12 -11 -5 0 -8 -6 -8 -14 0 -8 -4 -15 -10 -15 -5 0 -10 -12 -10 -26
0 -14 -4 -23 -8 -20 -5 3 -9 -1 -9 -9 0 -8 4 -12 8 -10 3 3 9 -4 12 -16 4 -16
12 -19 46 -18 22 2 38 6 35 11 -3 4 7 8 21 8 15 0 24 4 20 10 -5 9 16 15 38
11 5 -1 6 2 3 7 -2 4 9 14 25 21 16 7 26 17 23 23 -4 6 -2 8 4 4 6 -3 17 1 25
9 9 8 20 15 26 15 5 0 13 5 17 12 4 7 3 8 -4 4 -7 -4 -12 -2 -12 3 0 6 10 11
23 11 12 0 29 9 37 20 8 11 22 20 32 20 10 0 18 5 18 10 0 6 9 10 20 10 11 0
20 5 20 10 0 6 9 10 21 10 11 0 17 5 14 10 -4 6 5 10 19 10 14 0 26 5 26 10 0
6 7 10 15 10 9 0 25 9 37 20 12 11 34 20 50 20 15 0 28 5 28 10 0 6 7 10 16
10 8 0 12 5 9 10 -4 6 -3 10 2 9 22 -4 43 2 38 11 -3 6 3 10 13 10 23 0 74 25
67 32 -3 3 9 8 27 12 26 5 30 9 18 16 -12 8 -11 10 8 10 12 0 22 5 22 11 0 5
4 8 9 5 4 -3 17 1 27 9 10 8 27 15 37 15 9 0 17 5 17 10 0 6 9 10 21 10 11 0
17 4 14 10 -4 6 5 10 19 10 14 0 26 5 26 10 0 6 6 10 13 10 7 0 23 9 35 20 12
11 28 20 37 20 9 0 13 5 10 10 -3 6 3 10 15 10 12 0 19 4 16 8 -2 4 5 9 16 9
12 1 24 6 27 10 5 7 62 39 118 67 13 6 23 17 23 24 0 6 7 12 16 12 8 0 12 4 9
10 -3 5 2 10 12 10 10 0 25 9 33 20 8 11 22 20 32 20 10 0 18 5 18 10 0 6 7
10 15 10 8 0 15 5 15 10 0 6 7 10 15 10 8 0 29 13 47 30 17 16 37 30 44 30 8
0 14 5 14 10 0 6 7 10 16 10 8 0 12 5 9 10 -5 9 1 12 21 9 3 0 14 9 23 20 10
12 24 21 30 21 7 0 9 5 6 10 -4 6 5 10 20 10 20 0 26 4 21 15 -3 8 0 15 6 15
6 0 18 8 27 18 9 9 25 22 36 29 11 6 19 16 17 22 -1 6 1 10 5 10 22 -4 33 3
33 18 0 9 3 14 6 10 3 -3 32 21 64 53 32 32 61 56 64 53 3 -4 6 1 6 10 0 10 6
17 13 17 6 0 26 16 42 37 17 20 49 56 73 79 23 24 42 48 42 54 0 6 5 8 10 5 9
-6 14 8 11 28 -1 5 3 6 9 2 5 -3 10 2 10 12 0 15 2 16 10 3 8 -12 10 -11 10 5
0 11 9 27 20 35 11 8 20 23 20 33 0 10 5 15 10 12 6 -3 10 3 10 15 0 12 4 19
9 15 6 -3 13 0 18 7 11 17 49 47 39 31 -4 -8 -1 -13 8 -13 9 0 15 3 14 8 -2 4
-1 7 2 7 11 0 38 30 33 38 -2 4 1 7 7 7 6 0 48 37 93 82 44 46 85 82 89 80 4
-1 8 10 9 25 0 21 2 24 7 11 6 -15 10 -12 21 15 8 17 23 39 33 48 10 9 18 21
18 28 0 6 14 25 30 43 17 17 30 37 30 44 0 8 5 14 10 14 6 0 10 7 10 16 0 9 5
12 12 8 6 -4 8 -3 5 3 -4 6 2 20 13 33 10 12 16 29 13 37 -4 11 -2 14 5 9 7
-4 12 -1 12 8 0 9 5 16 10 16 6 0 9 3 9 8 -4 22 2 42 11 37 6 -3 17 1 26 9 9
9 11 16 4 16 -6 0 -2 10 10 22 11 12 20 28 20 35 0 7 5 13 10 13 6 0 10 9 10
20 0 11 5 20 10 20 6 0 10 7 10 16 0 8 4 13 8 10 7 -4 11 9 14 51 1 7 5 10 10
7 4 -3 8 2 8 10 0 9 5 16 10 16 6 0 10 9 10 20 0 11 5 20 10 20 6 0 10 7 10
16 0 9 8 24 18 33 9 9 18 23 20 31 2 8 8 17 13 18 5 2 9 12 9 23 0 10 5 19 10
19 6 0 10 7 10 16 0 8 4 13 8 10 4 -2 9 5 9 16 1 11 8 25 16 31 8 7 21 27 28
44 8 18 17 33 21 33 5 0 8 10 8 23 0 18 2 19 10 7 8 -12 10 -9 10 13 0 15 9
37 20 49 11 12 20 30 20 40 0 13 4 17 13 12 6 -4 9 -4 5 1 -4 4 -1 20 7 34 7
14 19 41 27 58 7 18 16 33 20 33 5 0 8 10 8 23 0 18 2 19 10 7 8 -12 10 -10
11 10 1 14 1 28 0 33 0 4 3 7 9 7 5 0 10 7 10 16 0 8 5 12 10 9 6 -3 10 3 10
14 0 12 5 21 10 21 6 0 10 9 10 21 0 11 4 18 8 15 5 -3 17 5 27 16 13 15 14
23 6 26 -8 3 -6 9 6 20 10 10 19 23 21 31 2 8 12 22 23 32 10 9 19 24 19 33 0
9 5 16 10 16 6 0 10 7 10 16 0 9 5 12 12 8 6 -4 8 -3 4 4 -3 6 5 22 19 36 14
14 25 32 25 41 0 9 5 13 10 10 6 -3 10 1 10 9 0 9 5 16 10 16 6 0 10 9 10 21
0 11 5 17 10 14 6 -3 10 3 10 15 0 12 5 18 10 15 6 -3 10 -1 10 5 0 12 24 40
35 40 12 0 34 27 28 34 -4 3 1 6 10 6 15 0 22 11 18 33 0 4 5 6 11 5 7 -2 12
3 10 10 -1 8 2 11 8 7 5 -3 10 2 10 12 0 15 2 16 10 3 9 -13 10 -13 11 0 1 8
1 18 0 23 0 4 6 7 15 7 9 0 12 5 8 12 -4 6 -3 8 3 5 6 -4 21 2 33 13 15 13 18
20 9 21 -8 0 -4 5 9 11 12 6 22 15 22 20 0 4 7 8 16 8 8 0 12 5 9 10 -4 6 6
10 22 10 22 0 25 2 13 10 -12 8 -9 10 13 10 15 0 37 9 49 20 20 18 39 25 61
21 4 0 7 4 7 10 0 5 4 8 8 5 5 -3 24 3 43 13 19 10 42 17 52 15 9 -1 15 2 11
7 -3 5 8 9 23 9 16 0 35 6 42 13 11 10 12 9 6 -3 -7 -12 -6 -13 6 -3 8 6 36
13 61 14 26 2 45 6 42 11 -5 8 40 12 80 8 10 -1 16 2 13 7 -3 5 5 10 19 11 22
2 24 -2 24 -44 0 -25 -4 -43 -8 -40 -5 3 -9 -1 -9 -9 0 -8 5 -11 11 -8 6 3 5
0 -1 -8 -7 -7 -13 -30 -13 -52 0 -28 -3 -36 -12 -31 -8 5 -7 0 2 -11 10 -13
11 -16 2 -11 -9 5 -13 3 -11 -5 4 -33 -2 -80 -9 -75 -5 3 -9 -1 -9 -9 0 -8 4
-12 9 -9 4 3 8 0 8 -5 0 -6 -4 -11 -10 -11 -5 0 -10 -10 -10 -23 0 -13 -6 -29
-12 -36 -10 -11 -10 -13 0 -7 6 4 12 2 12 -3 0 -6 -4 -11 -10 -11 -5 0 -10
-14 -10 -31 0 -21 -4 -28 -12 -23 -8 5 -7 0 2 -11 9 -11 10 -16 3 -11 -9 5
-13 -1 -13 -23 0 -16 -6 -32 -12 -34 -10 -4 -10 -6 -1 -6 9 -1 8 -8 -2 -27 -7
-15 -11 -33 -8 -42 4 -10 2 -13 -5 -8 -11 6 -18 -19 -13 -46 0 -5 -3 -8 -7 -8
-4 0 -9 -12 -10 -27 -1 -15 -5 -29 -10 -32 -7 -6 -14 -28 -15 -48 0 -7 -3 -13
-7 -13 -3 0 -6 -8 -7 -18 -2 -31 -8 -46 -21 -60 -7 -8 -10 -17 -7 -22 3 -5 1
-10 -5 -12 -5 -1 -11 -15 -12 -30 -1 -15 -6 -24 -10 -22 -4 3 -8 -8 -8 -25 0
-23 -4 -29 -15 -25 -10 4 -15 0 -15 -15 0 -12 -4 -21 -10 -21 -5 0 -10 -9 -10
-19 0 -11 -5 -23 -10 -26 -6 -3 -10 -14 -10 -24 0 -26 -25 -72 -34 -63 -4 4
-7 2 -6 -3 5 -25 -1 -56 -10 -50 -5 3 -10 -3 -10 -15 0 -12 -4 -18 -10 -15 -6
4 -10 3 -9 -2 4 -24 -2 -53 -11 -48 -5 3 -10 -1 -10 -9 0 -9 -6 -16 -12 -16
-9 0 -8 -4 2 -10 8 -5 10 -10 5 -10 -6 0 -16 -9 -23 -21 -9 -13 -9 -18 -2 -14
7 4 7 -1 -2 -14 -7 -12 -16 -21 -20 -21 -5 0 -8 -12 -8 -26 0 -14 -4 -23 -10
-19 -5 3 -10 -3 -10 -14 0 -12 -4 -21 -10 -21 -5 0 -10 -9 -10 -21 0 -11 -4
-18 -9 -14 -12 7 -33 -29 -24 -39 3 -3 1 -6 -5 -6 -7 0 -12 -9 -12 -20 0 -11
-4 -20 -10 -20 -5 0 -10 -9 -10 -20 0 -11 -5 -20 -11 -20 -6 0 -9 -7 -5 -15 3
-8 -1 -21 -9 -29 -8 -8 -15 -23 -15 -33 0 -10 -7 -27 -15 -37 -8 -10 -12 -23
-9 -27 3 -5 0 -9 -5 -9 -6 0 -11 -9 -11 -19 0 -11 -4 -23 -10 -26 -5 -3 -10
-20 -10 -36 0 -17 -4 -28 -8 -25 -8 4 -12 -15 -15 -61 0 -12 -5 -19 -9 -17 -4
3 -8 -12 -8 -33 0 -28 -3 -34 -10 -23 -7 11 -10 4 -10 -27 0 -23 -5 -43 -11
-45 -5 -2 -11 -18 -11 -35 -1 -18 -5 -30 -10 -27 -7 5 -13 -32 -9 -63 1 -6 -3
-14 -9 -18 -5 -3 -10 -19 -10 -35 0 -15 -7 -30 -15 -34 -8 -3 -15 -17 -15 -31
0 -14 -4 -25 -10 -25 -5 0 -10 -18 -10 -39 0 -22 -4 -41 -9 -43 -6 -1 -11 -22
-12 -45 -2 -23 -6 -40 -11 -37 -4 3 -8 -11 -8 -31 0 -22 -4 -34 -10 -30 -6 3
-11 -5 -11 -19 -2 -38 -3 -44 -11 -52 -5 -4 -8 -18 -8 -30 0 -13 -4 -26 -10
-29 -5 -3 -10 -20 -10 -36 0 -18 -4 -28 -10 -24 -6 4 -10 -8 -10 -29 0 -22 -5
-36 -12 -36 -9 0 -8 -4 2 -10 10 -6 11 -10 3 -10 -7 0 -13 -9 -13 -20 0 -11
-4 -20 -10 -20 -5 0 -10 -13 -10 -30 0 -16 -4 -30 -10 -30 -5 0 -10 -10 -10
-22 0 -13 -7 -32 -15 -42 -8 -10 -12 -23 -9 -27 3 -5 0 -9 -5 -9 -6 0 -11 -14
-11 -31 0 -17 -4 -28 -10 -24 -6 4 -10 -7 -10 -27 0 -25 -3 -29 -10 -18 -7 12
-11 8 -16 -18 -5 -24 -9 -30 -15 -20 -6 9 -9 7 -9 -9 0 -24 -40 -103 -52 -103
-4 0 -8 -9 -8 -20 0 -11 -4 -20 -8 -20 -4 0 -8 -9 -9 -20 -1 -11 -11 -29 -22
-42 -12 -12 -21 -28 -21 -35 0 -7 -4 -13 -10 -13 -5 0 -10 -9 -10 -21 0 -11
-4 -17 -10 -14 -5 3 -10 -3 -10 -15 0 -12 -4 -18 -10 -15 -5 3 -10 -3 -10 -14
0 -12 -4 -21 -8 -21 -5 0 -15 -12 -23 -27 -8 -16 -18 -31 -22 -34 -4 -3 -9
-15 -10 -27 0 -11 -5 -18 -9 -16 -5 3 -5 11 -2 17 4 7 3 8 -1 4 -5 -4 -10 -15
-11 -25 -2 -9 -8 -18 -13 -20 -6 -2 -11 -10 -11 -18 0 -9 -4 -12 -10 -9 -5 3
-10 -3 -10 -14 0 -12 -4 -21 -8 -21 -5 0 -15 -11 -22 -25 -7 -13 -18 -22 -23
-18 -6 3 -7 1 -3 -5 3 -6 -5 -22 -19 -36 -14 -14 -25 -29 -25 -34 0 -5 -14
-23 -30 -40 -16 -18 -30 -38 -30 -47 0 -8 -9 -19 -20 -25 -11 -6 -20 -15 -20
-21 0 -14 -26 -39 -39 -39 -10 0 -15 -14 -12 -33 0 -4 -4 -6 -11 -5 -6 2 -17
-7 -23 -19 -7 -13 -15 -20 -18 -16 -4 3 -7 1 -7 -6 0 -7 -14 -26 -30 -41 -17
-16 -32 -33 -33 -37 -1 -4 -6 -7 -10 -5 -5 1 -6 -2 -2 -8 3 -5 1 -10 -5 -10
-6 0 -9 -4 -5 -9 3 -6 -3 -14 -12 -20 -10 -6 -14 -11 -10 -11 5 0 -10 -18 -32
-39 -23 -22 -41 -44 -41 -50 0 -6 -7 -8 -15 -5 -10 4 -15 0 -15 -11 0 -9 -4
-14 -8 -11 -4 2 -14 -9 -21 -25 -7 -16 -17 -27 -22 -23 -5 3 -9 -1 -9 -8 0 -8
-9 -20 -19 -28 -11 -7 -18 -17 -15 -22 3 -4 -3 -8 -12 -8 -10 0 -14 -3 -11 -7
4 -3 2 -12 -4 -20 -6 -7 -8 -13 -4 -13 4 0 -6 -13 -23 -30 -18 -16 -27 -30
-20 -30 6 0 1 -8 -10 -19 -12 -10 -22 -24 -22 -30 0 -7 -5 -9 -12 -5 -6 4 -8
3 -4 -4 3 -6 -1 -17 -9 -25 -8 -9 -15 -23 -15 -31 0 -9 -4 -16 -10 -16 -5 0
-10 -10 -10 -21 0 -19 -2 -20 -17 -8 -9 8 -14 9 -10 3 3 -6 0 -20 -8 -30 -8
-10 -15 -31 -15 -46 0 -16 -4 -28 -10 -28 -5 0 -10 -12 -10 -26 0 -15 -4 -23
-10 -19 -6 4 -10 3 -9 -2 4 -23 -2 -64 -9 -59 -4 2 -9 -7 -10 -20 -1 -14 -6
-34 -12 -44 -7 -13 -7 -21 2 -26 7 -4 8 -3 4 4 -4 7 -2 12 4 12 6 0 29 18 51
41 21 22 39 35 39 27 1 -7 7 -2 15 12 8 14 15 21 15 15 0 -5 5 -2 11 8 5 9 17
17 24 17 9 0 15 10 16 23 0 12 3 17 5 10 4 -8 18 0 40 22 19 19 34 37 34 40 0
11 48 54 54 48 3 -4 6 -1 6 6 0 16 46 62 54 54 3 -4 6 1 6 9 0 9 8 15 18 14 9
0 16 5 14 12 -2 11 10 16 31 13 4 0 6 2 6 6 -3 20 2 33 13 31 7 -2 17 6 22 18
5 11 19 25 30 30 12 5 20 16 18 23 -1 7 1 10 6 7 4 -2 14 -1 22 5 10 6 11 9 3
9 -7 0 -13 5 -13 11 0 5 4 7 10 4 5 -3 10 -1 10 5 0 15 26 41 34 33 3 -4 6 1
6 11 0 9 5 14 10 11 6 -3 10 -1 10 5 0 12 24 40 35 40 14 0 113 109 102 114
-7 2 -2 5 11 5 13 1 20 5 17 11 -3 6 -1 10 5 10 6 0 8 5 5 10 -3 6 1 10 9 10
8 0 18 5 22 12 4 7 3 8 -4 4 -26 -16 -10 7 38 54 27 28 44 50 37 50 -8 0 -7 4
3 9 8 6 18 7 24 4 5 -3 6 -1 2 5 -4 7 -2 12 4 12 6 0 8 5 5 10 -3 6 1 10 9 10
9 0 16 7 16 16 0 8 4 13 8 10 9 -5 36 27 33 39 -1 3 6 14 16 23 27 26 51 58
35 48 -11 -7 -11 -4 0 13 7 12 16 21 20 21 5 0 8 7 8 16 0 8 5 12 10 9 6 -3
10 2 10 12 0 10 9 25 20 33 11 8 20 22 20 32 0 10 5 18 10 18 6 0 10 7 10 16
0 9 5 12 12 8 6 -4 8 -3 4 4 -3 6 1 18 10 26 8 9 12 16 9 16 -4 0 3 15 14 33
11 19 17 38 13 42 -4 5 1 5 11 2 12 -5 17 -1 17 14 0 13 4 18 12 13 6 -4 8 -3
4 4 -3 6 1 17 9 25 8 9 15 25 15 37 0 12 5 18 10 15 6 -3 10 3 10 15 0 12 4
19 8 16 5 -3 15 10 22 29 8 19 17 35 22 35 4 0 8 9 8 20 0 11 5 20 10 20 6 0
10 7 10 16 0 9 5 12 13 8 8 -5 8 -2 -2 9 -9 11 -10 17 -2 17 6 0 11 7 11 16 0
8 5 12 10 9 6 -3 10 3 10 14 0 10 4 21 9 23 5 2 11 10 13 18 2 8 12 23 22 33
12 11 14 17 6 17 -8 0 -4 8 8 19 12 10 22 26 22 35 0 9 7 16 15 16 8 0 15 9
15 20 0 11 3 20 8 20 4 0 13 9 20 21 9 13 9 18 2 14 -7 -4 -7 1 2 14 7 12 16
21 21 21 4 0 6 4 2 9 -3 5 2 16 10 24 8 9 15 21 15 27 0 6 9 20 20 32 11 12
20 30 20 40 0 12 4 16 12 12 6 -4 8 -3 5 3 -4 6 2 22 13 35 11 14 16 28 13 32
-3 3 -1 6 5 6 7 0 12 11 12 25 0 14 5 25 10 25 6 0 10 7 10 15 0 9 9 25 20 37
11 12 20 28 20 35 0 7 5 13 10 13 6 0 10 9 10 20 0 11 7 20 16 20 8 0 13 4 9
9 -3 5 2 16 10 24 8 9 15 23 15 31 0 9 5 16 10 16 6 0 10 9 10 21 0 11 5 17
10 14 6 -4 10 5 10 20 0 14 9 35 20 47 11 12 20 30 20 40 0 11 5 16 10 13 9
-5 15 24 11 48 -1 5 3 6 9 2 5 -3 10 1 10 9 0 9 5 16 10 16 6 0 10 9 10 20 0
11 5 20 10 20 6 0 10 9 10 20 0 11 5 20 10 20 6 0 10 11 10 25 0 14 5 25 10
25 6 0 10 9 10 20 0 11 5 20 10 20 6 0 10 9 10 20 0 11 7 20 15 20 8 0 15 9
15 20 0 11 5 20 10 20 6 0 10 9 10 20 0 11 5 20 10 20 6 0 10 8 10 18 0 9 10
23 23 31 21 13 21 13 6 -5 -9 -10 -15 -30 -13 -43 3 -13 0 -29 -5 -35 -6 -7
-11 -28 -13 -48 -1 -20 -6 -34 -10 -32 -8 5 -12 -30 -8 -74 1 -13 -3 -29 -9
-36 -5 -6 -11 -28 -13 -48 -1 -28 -5 -35 -17 -30 -14 5 -14 4 -1 -13 9 -11 10
-16 3 -11 -9 5 -13 -1 -14 -21 -1 -15 -1 -31 0 -35 0 -5 -5 -8 -11 -8 -9 0 -8
-4 2 -10 10 -6 11 -10 3 -10 -8 0 -13 -15 -13 -41 0 -22 -4 -38 -8 -35 -5 3
-9 -1 -9 -9 0 -8 5 -11 11 -8 6 3 5 0 -1 -8 -7 -7 -13 -28 -13 -47 0 -24 -3
-31 -12 -26 -8 5 -7 0 2 -11 9 -11 10 -16 3 -11 -10 5 -13 -3 -13 -29 0 -20
-4 -34 -8 -31 -5 3 -9 -1 -9 -9 0 -8 5 -11 11 -8 6 3 5 0 -1 -8 -7 -7 -13 -24
-13 -37 0 -13 -4 -20 -10 -17 -5 3 -10 1 -10 -4 0 -6 5 -11 10 -11 6 0 10 -5
10 -11 0 -5 -4 -7 -10 -4 -6 4 -10 -6 -10 -24 0 -16 -6 -32 -12 -34 -10 -4
-10 -6 0 -6 6 -1 12 -6 12 -12 0 -5 -4 -7 -10 -4 -6 4 -10 -10 -10 -34 0 -23
-4 -41 -10 -41 -5 0 -10 -13 -10 -30 0 -16 -5 -30 -10 -30 -6 0 -9 -3 -9 -7 4
-27 -3 -63 -11 -58 -6 4 -10 -8 -10 -29 0 -19 -4 -38 -10 -41 -5 -3 -10 -20
-10 -36 0 -18 -4 -28 -10 -24 -6 4 -10 -8 -10 -30 0 -22 -4 -34 -10 -30 -5 3
-10 -3 -10 -14 0 -28 -11 -52 -21 -45 -5 3 -9 -6 -9 -20 0 -14 -4 -28 -10 -31
-5 -3 -10 -21 -10 -38 0 -24 -3 -28 -10 -17 -8 12 -10 9 -10 -12 0 -15 -5 -30
-10 -33 -6 -3 -10 -20 -10 -36 0 -18 -4 -28 -10 -24 -6 4 -9 3 -8 -2 3 -9 -20
-90 -33 -115 -5 -10 -9 -25 -9 -33 0 -8 -4 -15 -10 -15 -5 0 -10 -13 -10 -30
0 -16 -4 -30 -10 -30 -5 0 -10 -6 -10 -14 0 -7 -7 -26 -14 -42 -8 -15 -12 -32
-9 -37 3 -6 2 -7 -4 -4 -6 4 -16 -13 -23 -36 -8 -23 -17 -46 -22 -51 -4 -6 -8
-18 -8 -28 0 -10 -4 -18 -10 -18 -5 0 -10 -10 -10 -21 0 -16 -3 -19 -13 -11
-10 8 -13 5 -15 -16 -1 -15 -7 -29 -12 -30 -6 -2 -10 -10 -10 -18 0 -9 -5 -12
-12 -8 -6 4 -8 3 -4 -4 3 -6 -1 -17 -9 -25 -8 -9 -15 -23 -15 -31 0 -9 -4 -16
-10 -16 -5 0 -10 -12 -10 -26 0 -14 -4 -23 -10 -19 -6 4 -10 -5 -10 -19 0 -14
-4 -26 -10 -26 -5 0 -10 -9 -10 -20 0 -11 -4 -20 -10 -20 -5 0 -10 -9 -10 -20
0 -11 -4 -20 -10 -20 -5 0 -10 -9 -10 -20 0 -11 -4 -20 -10 -20 -5 0 -10 -9
-10 -20 0 -11 -4 -20 -10 -20 -5 0 -10 -13 -10 -30 0 -16 -4 -30 -10 -30 -5 0
-10 -11 -10 -25 0 -14 -4 -25 -10 -25 -5 0 -10 -12 -10 -26 0 -14 -4 -23 -8
-20 -7 4 -12 -17 -15 -61 0 -8 -4 -9 -12 -3 -7 6 -12 -1 -13 -23 -2 -17 -7
-36 -12 -41 -6 -6 -10 -24 -10 -40 0 -24 -3 -28 -11 -16 -8 12 -10 12 -8 -5 3
-42 -1 -76 -9 -71 -8 5 -13 -27 -13 -77 0 -10 -5 -15 -12 -11 -8 5 -8 3 1 -7
6 -7 12 -18 12 -24 0 -5 -5 -3 -10 5 -7 11 -10 -4 -10 -48 0 -43 -3 -61 -11
-56 -8 4 -8 0 0 -15 7 -11 17 -21 24 -21 13 0 47 35 47 49 0 4 10 16 22 27 12
10 18 13 13 5 -5 -10 -4 -12 3 -7 7 4 12 14 12 22 0 8 4 14 8 14 5 0 15 12 23
28 8 15 22 34 31 43 10 9 18 22 18 28 0 7 5 9 12 5 6 -4 8 -3 4 4 -3 6 1 17
10 26 8 9 16 25 17 35 0 11 5 17 9 15 4 -3 8 2 8 10 0 9 5 16 10 16 6 0 10 8
10 18 0 10 9 24 20 32 11 8 20 22 20 32 0 10 5 18 10 18 6 0 10 7 10 16 0 9 5
12 12 8 6 -4 8 -3 4 4 -3 6 1 17 9 25 8 9 15 23 15 31 0 9 7 16 15 16 8 0 15
9 15 21 0 11 5 17 10 14 9 -5 15 24 11 48 -1 5 3 6 9 2 5 -3 10 1 10 9 0 9 5
16 10 16 6 0 10 9 10 20 0 11 5 20 10 20 6 0 10 9 10 20 0 11 5 20 10 20 6 0
10 7 10 15 0 9 9 25 20 37 11 12 20 32 20 45 0 14 4 21 10 18 6 -3 10 3 10 15
0 14 4 19 13 14 8 -5 8 -2 -2 9 -9 11 -10 17 -2 17 6 0 11 9 11 21 0 11 4 18
8 15 4 -2 14 10 21 27 7 18 17 42 22 55 22 54 35 78 46 85 7 4 13 17 13 28 0
11 4 18 8 15 4 -2 9 10 10 27 2 17 7 36 12 41 6 6 10 21 10 34 0 13 4 20 10
17 6 -4 10 5 10 19 0 14 6 26 13 26 8 0 7 4 -3 10 -10 6 -11 10 -2 10 6 0 12
9 12 20 0 11 6 20 13 20 8 0 7 4 -3 10 -10 6 -11 10 -2 10 6 0 12 9 12 20 0
11 6 20 13 20 8 0 7 4 -3 10 -10 6 -11 10 -2 10 7 0 12 13 12 31 0 16 4 28 8
25 4 -2 9 10 10 27 2 17 6 34 10 37 4 3 9 19 10 35 1 17 7 31 12 33 6 2 10 15
10 28 0 14 4 23 8 20 4 -2 9 7 10 22 1 14 7 31 12 36 6 6 10 23 10 38 0 15 5
28 10 28 6 0 10 14 10 30 0 20 5 30 15 30 10 0 15 10 15 30 0 17 5 30 10 30 6
0 10 15 10 33 0 24 3 28 10 17 7 -11 10 -8 10 16 0 16 6 36 13 43 10 11 10 13
0 7 -18 -10 -16 2 2 21 8 8 13 19 10 24 -3 4 2 20 11 34 9 14 14 25 10 25 -3
0 3 16 14 35 11 20 20 44 20 55 0 11 5 20 10 20 6 0 10 16 10 36 0 19 4 33 8
30 5 -3 9 9 10 26 0 17 6 34 11 38 6 3 12 18 13 33 1 15 6 27 10 27 4 0 8 11
8 24 0 14 5 28 10 31 6 3 10 15 10 26 0 10 5 19 10 19 6 0 10 14 10 30 0 17 5
30 10 30 6 0 10 13 10 29 0 17 5 33 12 37 7 4 8 3 4 -4 -4 -7 -2 -12 3 -12 6
0 11 13 11 29 0 17 5 33 10 36 6 3 10 17 10 31 0 14 4 22 10 19 6 -4 10 5 10
19 0 14 6 26 13 26 8 0 7 4 -3 10 -10 6 -11 10 -2 10 6 0 12 12 12 26 0 14 4
23 10 19 6 -4 10 6 10 24 0 16 5 33 10 36 6 3 10 17 10 31 0 14 4 23 8 20 4
-2 9 7 10 22 1 14 7 31 12 36 6 6 10 20 10 33 0 13 5 23 10 23 6 0 10 11 10
24 0 14 5 28 10 31 6 3 10 17 10 31 0 13 6 24 13 24 8 0 7 4 -3 10 -10 6 -11
10 -2 10 6 0 12 12 12 26 0 14 4 23 10 19 6 -4 10 7 10 24 0 17 4 31 8 31 4 0
9 12 10 27 1 15 6 29 11 33 6 3 12 19 15 35 2 17 5 32 5 35 1 3 6 -2 11 -10 7
-11 10 -7 11 20 1 19 1 38 0 43 0 4 3 7 9 7 5 0 10 14 10 30 0 17 5 30 10 30
6 0 10 14 10 31 0 17 4 28 10 24 8 -5 13 22 9 51 0 4 3 10 8 13 13 10 33 75
33 110 0 19 4 30 10 26 6 -4 10 7 10 24 0 17 5 31 10 31 6 0 10 14 10 31 0 16
4 28 8 25 5 -3 9 9 10 26 0 17 7 35 14 39 10 7 10 9 -2 9 -11 0 -12 2 -3 8 7
4 13 22 15 40 1 18 6 32 10 32 4 0 8 19 8 43 0 31 3 38 10 27 7 -11 10 -4 10
28 0 23 5 42 10 42 6 0 10 19 10 43 0 31 3 38 10 27 7 -11 10 -5 11 25 1 22 1
45 0 52 -1 6 4 15 10 19 8 5 9 3 4 -6 -5 -9 -4 -11 3 -6 7 4 12 22 12 41 0 19
5 37 10 40 6 3 10 19 10 35 0 16 5 32 10 35 6 3 10 24 10 46 0 22 3 38 8 36 4
-3 8 18 10 46 1 28 6 53 10 56 4 4 9 24 11 46 2 22 7 47 11 56 5 8 10 39 11
67 1 28 6 49 11 46 4 -3 8 20 8 50 0 31 5 56 10 56 6 0 9 3 9 8 -5 28 3 102 9
98 5 -3 9 1 9 9 0 8 -5 11 -11 8 -6 -3 -5 0 2 8 6 7 12 26 12 42 0 32 25 65
33 44 4 -9 6 -9 6 1 1 6 8 12 16 12 9 0 26 9 37 20 17 15 24 17 30 8 6 -10 8
-10 8 0 0 6 7 12 16 12 8 0 12 5 9 10 -3 6 3 10 14 10 12 0 21 3 21 8 0 4 14
13 30 20 17 8 28 18 24 23 -3 5 0 9 6 9 6 0 18 7 27 15 8 8 19 12 25 9 7 -4 8
-2 4 4 -4 7 -2 12 4 12 6 0 8 5 5 10 -4 6 -3 10 2 9 20 -3 34 2 28 11 -3 6 1
10 9 10 9 0 16 7 16 15 0 8 5 15 10 15 15 0 140 127 133 134 -4 3 -1 6 6 6 18
0 47 30 29 31 -7 0 -3 4 10 9 12 5 22 15 22 22 0 8 9 20 20 28 11 8 20 20 20
28 0 7 5 10 10 7 6 -3 10 3 10 15 0 23 21 50 39 50 6 0 11 7 11 16 0 8 5 12
10 9 9 -5 12 1 9 21 0 3 9 14 20 23 12 10 21 27 21 37 0 16 2 17 10 4 8 -12
10 -11 10 8 0 12 5 22 10 22 6 0 10 7 10 16 0 8 5 12 10 9 6 -3 10 3 10 14 0
12 5 21 10 21 6 0 10 7 10 16 0 9 5 12 13 8 7 -5 6 0 -3 11 -9 11 -10 16 -2
11 7 -4 12 -1 12 8 0 9 5 16 10 16 6 0 10 7 10 16 0 8 5 12 10 9 6 -4 10 -3 9
2 -4 22 2 43 11 38 6 -3 10 4 10 17 0 18 2 20 10 8 8 -12 10 -11 10 8 0 12 5
22 10 22 6 0 10 9 10 20 0 13 5 18 15 14 14 -6 21 12 16 39 -1 5 3 6 9 2 5 -3
10 0 10 7 0 8 9 20 20 28 14 10 16 16 7 22 -9 6 -9 8 1 8 6 0 12 7 12 15 0 8
5 15 10 15 6 0 10 7 10 16 0 9 5 12 12 8 6 -4 8 -3 4 4 -3 6 1 17 9 25 8 9 15
21 15 27 0 6 5 8 12 4 6 -4 8 -3 4 4 -3 6 1 17 9 25 8 9 15 21 15 27 0 6 5 8
10 5 6 -3 10 1 10 10 0 9 9 25 20 37 11 12 20 28 20 35 0 7 5 13 10 13 6 0 10
5 10 11 0 14 26 39 40 39 6 0 9 4 6 9 -3 5 1 11 9 15 8 3 15 11 15 17 0 6 9
20 21 30 11 9 20 21 21 26 0 4 4 7 10 5 5 -1 7 2 4 6 -3 5 6 22 19 38 14 16
25 35 25 42 0 6 5 12 11 12 5 0 8 4 4 9 -3 5 -1 12 5 16 6 4 8 11 5 16 -4 5
-1 9 4 9 6 0 11 7 11 16 0 8 4 13 8 10 4 -2 9 7 10 20 1 14 9 32 17 40 8 9 13
19 10 24 -3 5 -1 10 5 12 5 1 11 15 12 31 1 15 6 27 10 27 4 0 8 14 8 30 0 19
5 30 14 30 12 0 14 20 14 101 0 81 -2 97 -12 84 -10 -15 -12 -14 -13 5 -2 27
-26 80 -35 80 -5 0 -8 7 -8 16 0 8 -4 13 -8 10 -4 -2 -14 4 -21 16 -9 15 -10
18 0 13 8 -5 10 -4 5 3 -4 7 -13 12 -19 12 -7 0 -19 9 -27 20 -8 11 -21 20
-30 20 -9 0 -22 9 -30 20 -8 11 -21 20 -30 20 -9 0 -22 9 -30 20 -8 11 -22 20
-31 20 -9 0 -30 13 -47 29 -16 16 -33 27 -36 24 -3 -4 -6 -1 -6 6 0 7 -4 9
-10 6 -5 -3 -10 2 -10 11 0 10 -3 14 -6 11 -4 -3 -19 7 -34 23 -16 17 -33 30
-38 30 -6 0 -14 5 -18 12 -4 7 -3 8 4 4 7 -4 12 -2 12 3 0 6 -7 11 -15 11 -9
0 -18 7 -21 15 -4 8 -10 13 -14 10 -4 -3 -10 4 -13 15 -3 11 -13 20 -22 20
-18 0 -67 45 -58 54 4 3 1 6 -6 6 -7 0 -31 21 -54 46 -23 26 -53 58 -67 72
-14 13 -24 31 -22 39 2 9 -1 12 -7 8 -6 -3 -11 -1 -11 5 0 13 -65 80 -78 80
-5 0 -15 12 -23 28 -8 15 -26 39 -41 54 -16 14 -28 30 -28 36 0 5 -13 23 -30
40 -16 18 -30 34 -30 38 0 3 -7 12 -15 21 -8 8 -12 19 -9 25 4 7 2 8 -4 4 -7
-4 -12 -2 -12 5 0 7 -18 29 -40 51 -23 21 -36 38 -30 38 7 0 6 5 -2 14 -7 8
-16 12 -19 10 -7 -4 -39 33 -39 47 0 5 -4 8 -8 5 -4 -2 -14 9 -21 25 -7 16
-17 27 -22 23 -5 -3 -9 3 -9 13 0 10 -9 25 -20 33 -11 8 -20 20 -20 27 0 7 -9
17 -20 23 -11 6 -20 15 -20 21 0 6 -13 24 -30 39 -16 15 -30 33 -30 40 0 6 -5
8 -10 5 -6 -3 -10 -1 -10 4 0 6 -5 11 -11 11 -6 0 -28 18 -49 40 -21 22 -46
40 -55 40 -15 0 -15 3 -5 16 8 8 9 14 4 13 -5 -1 -16 -1 -24 0 -13 1 -13 2 0
11 12 8 11 10 -7 10 -13 0 -23 5 -23 10 0 6 -6 10 -13 10 -7 0 -30 16 -51 35
-21 19 -42 32 -47 29 -5 -3 -8 0 -7 8 2 7 -4 13 -12 13 -8 0 -22 8 -31 18 -9
9 -25 17 -35 17 -16 0 -17 2 -4 10 13 9 13 10 -1 10 -8 0 -25 9 -37 20 -12 11
-26 20 -32 20 -6 0 -8 5 -4 12 4 6 3 8 -3 5 -12 -8 -53 25 -53 42 0 6 -9 11
-21 11 -11 0 -17 5 -14 10 3 6 0 10 -7 10 -8 0 -20 9 -28 20 -8 11 -23 20 -33
20 -11 0 -32 14 -47 30 -16 17 -31 31 -34 30 -21 -1 -26 1 -21 10 3 6 1 10 -5
10 -7 0 -25 14 -40 30 -16 17 -31 31 -34 30 -21 -1 -26 1 -21 10 3 6 0 10 -7
10 -8 0 -20 9 -28 20 -8 11 -22 20 -32 20 -9 0 -20 5 -24 12 -4 6 -3 8 4 4 6
-3 14 -2 17 4 4 6 3 10 -2 9 -20 -3 -32 3 -61 31 -18 17 -37 30 -42 30 -6 0
-9 4 -6 8 3 5 -7 15 -22 23 -35 18 -53 35 -45 43 4 3 1 6 -6 6 -7 0 -34 23
-61 50 -27 28 -52 50 -55 50 -8 0 -35 27 -35 35 0 4 -18 24 -40 45 -22 21 -40
45 -40 52 0 14 -32 42 -44 39 -4 -1 -29 21 -56 49 -27 28 -52 51 -55 50 -21
-1 -25 1 -20 10 6 9 -8 15 -29 11 -5 -1 -3 5 4 14 11 14 11 16 -1 13 -8 -2
-13 3 -11 10 1 8 -1 11 -6 8 -5 -3 -20 6 -35 20 -14 13 -31 24 -37 24 -6 0 -9
4 -6 8 3 5 -6 15 -19 22 -13 7 -22 18 -18 23 3 6 2 7 -4 4 -6 -4 -31 14 -57
38 -25 25 -51 45 -56 45 -6 0 -10 5 -10 11 0 5 -4 7 -10 4 -5 -3 -10 1 -10 9
0 9 -3 15 -7 15 -20 -3 -29 3 -41 31 -8 17 -18 28 -23 24 -5 -3 -9 3 -9 12 0
10 -3 15 -6 11 -8 -8 -33 16 -27 26 2 4 -1 7 -7 7 -15 0 -40 25 -40 41 0 7 -3
10 -6 6 -8 -8 -33 16 -27 26 2 4 -3 7 -11 7 -9 0 -16 7 -16 15 0 9 -11 20 -25
25 -14 5 -25 16 -25 25 0 8 -7 15 -16 15 -8 0 -13 4 -10 8 3 5 -4 15 -15 22
-10 8 -19 19 -19 25 0 6 -9 17 -20 25 -14 10 -16 16 -7 22 9 6 9 8 0 8 -14 0
-76 87 -76 106 0 7 -3 11 -7 9 -3 -2 -12 10 -19 26 -7 16 -17 27 -22 23 -5 -3
-9 2 -9 11 0 9 -4 14 -8 11 -4 -2 -9 9 -10 26 -1 16 -9 42 -17 58 -8 15 -11
30 -8 34 4 3 -1 6 -10 6 -10 0 -17 8 -17 20 0 11 -4 20 -10 20 -5 0 -10 9 -10
20 0 11 -4 20 -10 20 -5 0 -10 9 -10 20 0 11 -4 20 -10 20 -5 0 -10 12 -10 26
0 14 -4 23 -10 19 -5 -3 -10 3 -10 14 0 12 -4 21 -10 21 -5 0 -10 10 -10 23 0
12 -9 29 -20 37 -14 10 -16 16 -7 22 9 6 9 8 0 8 -7 0 -13 7 -13 15 0 8 -4 15
-10 15 -5 0 -10 5 -10 11 0 6 -7 17 -15 26 -8 8 -12 19 -9 25 4 7 2 8 -4 4 -7
-4 -12 -1 -12 8 0 9 -4 16 -10 16 -5 0 -10 8 -10 18 0 10 -9 24 -20 32 -11 8
-20 26 -20 39 0 24 0 24 -15 5 -11 -13 -13 -14 -9 -3 3 9 -2 23 -10 32 -9 9
-16 20 -16 26 0 6 -18 30 -40 52 -22 23 -40 46 -40 52 0 5 -8 17 -18 26 -9 9
-23 28 -31 44 -8 15 -18 27 -23 27 -4 0 -8 7 -8 16 0 8 -4 12 -10 9 -5 -3 -10
3 -10 15 0 12 -4 19 -8 16 -4 -2 -13 8 -20 24 -9 19 -18 27 -28 23 -8 -3 -14
1 -14 9 0 7 -9 20 -20 28 -11 8 -20 20 -20 28 0 7 -4 10 -10 7 -9 -6 -14 8
-11 28 0 4 -4 6 -11 5 -6 -2 -17 7 -23 19 -7 13 -15 20 -18 16 -4 -3 -7 -1 -7
6 0 7 -13 26 -30 41 -16 15 -30 31 -30 35 0 4 -13 19 -30 35 -16 15 -26 30
-23 34 3 3 -1 6 -9 6 -9 0 -18 10 -22 23 -5 18 -8 20 -16 7 -8 -12 -10 -10
-10 10 0 20 -2 22 -10 10 -9 -13 -10 -13 -11 0 -1 8 -1 19 0 23 1 5 -3 6 -9 2
-5 -3 -10 2 -11 12 0 12 -2 13 -6 5 -4 -10 -9 -7 -17 10 -7 12 -18 22 -25 20
-7 -1 -10 2 -7 7 8 13 -23 43 -36 35 -7 -4 -8 -2 -4 4 4 7 3 12 -3 12 -5 0
-16 12 -23 27 -7 14 -22 31 -32 37 -10 6 -31 23 -46 39 -15 15 -32 27 -39 27
-6 0 -11 7 -11 17 0 9 -3 14 -6 10 -4 -3 -28 16 -54 43 -26 27 -50 46 -54 43
-3 -4 -6 1 -6 11 0 9 -4 14 -10 11 -5 -3 -10 1 -10 9 0 9 -6 15 -12 13 -7 -1
-12 4 -11 11 2 6 -3 12 -11 12 -8 0 -18 5 -22 12 -5 7 -3 8 6 3 9 -5 11 -4 6
3 -4 7 -12 12 -18 12 -5 0 -23 14 -39 31 -16 17 -33 28 -39 24 -5 -3 -10 1
-10 9 0 15 -12 21 -33 17 -5 -1 -6 2 -3 7 2 4 1 14 -5 22 -6 11 -9 11 -9 2 0
-7 -20 8 -46 33 -25 25 -50 42 -56 39 -7 -4 -8 -3 -4 4 4 7 2 12 -4 12 -7 0
-25 14 -41 31 -15 16 -37 31 -48 32 -11 0 -17 5 -15 9 3 5 10 6 15 3 5 -4 9
-1 9 4 0 6 -12 11 -26 11 -14 0 -23 4 -19 10 3 6 0 10 -7 10 -8 0 -20 9 -28
20 -8 11 -20 20 -28 20 -7 0 -10 5 -6 12 4 6 3 8 -4 4 -6 -3 -23 6 -38 21 -16
16 -29 27 -31 26 -2 -2 -9 -3 -15 -3 -9 0 -8 4 2 10 12 8 11 10 -5 10 -11 0
-27 9 -35 19 -7 11 -17 18 -22 15 -4 -3 -8 0 -8 6 0 6 -4 8 -10 5 -5 -3 -10
-1 -10 4 0 6 -7 11 -15 11 -8 0 -15 5 -15 10 0 6 -9 10 -21 10 -11 0 -17 5
-14 10 3 6 -1 10 -9 10 -9 0 -16 5 -16 10 0 6 -9 10 -20 10 -12 0 -20 -7 -20
-17z m3367 -8129 c-3 -3 -12 -4 -19 -1 -8 3 -5 6 6 6 11 1 17 -2 13 -5z"/>
<path d="M5281 6104 c0 -11 3 -14 6 -6 3 7 2 16 -1 19 -3 4 -6 -2 -5 -13z"/>
</g>
</svg>
